<?xml version="1.0" encoding="UTF-8"?>
<svg width="374.67" height="332" version="1.1" viewBox="0 0 374.67 332" xmlns="http://www.w3.org/2000/svg"><path d="m169.33 31.238c-57.378 8.2164-104.9 51.147-115.65 108.76-3.9703 21.269-3.06 43.153 2.8889 64 2.3519 8.2413 5.0883 19.237 15.43 19.797 7.8091 0.42267 13.827-5.304 13.642-13.131-0.19987-8.476-4.8421-16.981-6.358-25.333-2.8412-15.652-2.1619-31.289 1.8951-46.667 18.543-70.286 102.66-104.65 164.15-65.213 78.165 50.125 61.692 171.41-28 197.96-21.243 6.288-44.427 5.616-65.333-1.6747-8.7853-3.064-21.245-10.471-28.344-0.26133-13.28 19.099 24.788 27.597 36.344 29.923 18.88 3.7987 39.899 2.9813 58.667-1.016 17.231-3.6693 33.716-11.369 48-21.623 91.256-65.503 64.968-219.09-48-243.15-15.711-3.3457-33.351-4.6652-49.333-2.3765m38.725 41.752c-8.1653 3.3181-9.6933 14.945-3.5 20.826 6.9747 6.6217 18.339 8.7624 26.108 14.874 22.473 17.679 33.623 46.04 26.803 73.976-2.9453 12.065-14.467 22.969-15.779 34.667-1.084 9.656 7.8707 16.671 16.956 13.795 11.803-3.7347 19.001-23.08 22.428-33.795 11.963-37.411 1.2213-78.575-27.741-105.21-9.6333-8.8591-31.101-24.895-45.275-19.135m-72.059 9.2181c-17.779 5.2473-32.731 28.401-39.55 44.459-4.0721 9.588-0.67933 24.779 12.879 21.869 12.542-2.692 19.115-25.983 28.232-34.632 4.8947-4.6435 12.316-8.6384 14.779-15.243 3.7827-10.143-6.5733-19.336-16.339-16.454m-35.995 87.909c-18.15 4.732-5.7056 31.688-0.532 41.883 11.808 23.269 34.087 41.647 59.193 48.763 7.3987 2.096 17.784 5.216 25.313 2.248 7.908-3.1187 10.412-13.656 4.7747-20.04-7.3667-8.344-26.655-8.4613-36.755-14.053-20.946-11.599-28.149-29.353-36.347-50.231-2.4415-6.2173-8.9137-10.325-15.648-8.5693z" fill="#676767"/></svg>
