<?xml version="1.0" encoding="UTF-8"?>
<svg width="1770.7" height="432" version="1.1" viewBox="0 0 1770.7 432" xmlns="http://www.w3.org/2000/svg"><g stroke-width="1.3333"><path d="m0 216v-216h1770.7v432h-1770.7z" fill="#3446c0"/><path d="m0 355.33v-76.667h14.841c18.655 0 49.688-4.2951 73.826-10.218 14.349-3.5208 40.156-11.543 46.667-14.507 2.2-1.0014 7-2.9806 10.667-4.3982 17.047-6.5909 55.657-27.517 67.333-36.495 1.8333-1.4095 7.714-5.8067 13.068-9.7715 27.065-20.041 54.087-47.039 74.012-73.944 4.0731-5.5 8.5443-11.5 9.936-13.333 2.0057-2.6422 12.435-19.709 20.37-33.333 3.5359-6.0714 15.784-32.109 17.248-36.667 0.94228-2.9333 2.1677-5.9333 2.7232-6.6667 1.5996-2.1118 11.976-34 11.976-36.804 0-2.4808 13.6-2.5296 704-2.5296h704v432h-1770.7z" fill="#3440b6"/><path d="m1104 431.33c0-0.36804 2.9306-6.8212 6.5125-14.34 3.5818-7.5192 8.1429-17.568 10.136-22.331 1.9927-4.7627 5.0621-11.827 6.8209-15.699 1.7587-3.8717 3.1977-7.381 3.1977-7.7985s0.9-2.7997 2-5.2938c4.2901-9.7276 5.9198-13.771 12.036-29.868 6.6322-17.454 17.164-47.858 22.862-66 3.2526-10.356 4.1999-13.554 6.9124-23.333 0.7119-2.5667 2.2576-7.9667 3.4349-12 5.9422-20.357 9.7959-35.369 12.605-49.103 0.799-3.9067 1.7355-7.5606 2.0811-8.1198 0.7835-1.2676 6.6704-29.437 10.054-48.11 1.3953-7.7 3.1223-17 3.8377-20.667 0.7154-3.6667 1.9888-11.467 2.8299-17.333 0.8411-5.8667 2.351-16.067 3.3553-22.667 1.0044-6.6 2.4533-18 3.2198-25.333 0.7665-7.3333 2.1095-20.083 2.9844-28.333l1.5907-15h550.2v432h-333.33c-183.33 0-333.33-0.30112-333.33-0.66915z" fill="#3539aa"/><path d="m1258.2 407c5.42-13.75 11.085-28.3 12.589-32.333 1.504-4.0333 3.252-8.5333 3.8844-10 1.9924-4.6206 14.604-42.09 18.848-56 2.2378-7.3333 5.5346-18.133 7.3264-24 1.7918-5.8667 4.6998-16.256 6.4622-23.088 1.7625-6.8318 3.8094-14.332 4.5487-16.667 2.0186-6.3752 11.501-47.111 15.266-65.579 3.5462-17.397 8.4159-43.33 10.015-53.333 0.8205-5.1333 2.3311-14.433 3.3568-20.667 1.0257-6.2333 2.5715-17.033 3.4349-24 0.8635-6.9667 2.377-18.967 3.3634-26.667s2.5492-23.15 3.4729-34.333l1.6795-20.333h418.18v432h-522.28z" fill="#36339e"/><path d="m1390.7 431.49c0-0.27851 3.2331-9.4285 7.1845-20.333 8.0278-22.154 14.189-40.395 21.335-63.16 6.8036-21.676 8.2818-26.532 10.147-33.333 0.9048-3.3 2.2227-7.8 2.9285-10 1.5259-4.7559 6.7642-24.503 9.7263-36.667 1.1608-4.7667 2.9528-11.967 3.9821-16 2.5395-9.9501 4.2896-17.586 6.5704-28.667 1.0567-5.1333 3.1735-15.333 4.704-22.667 3.3963-16.273 6.0744-30.295 8.1491-42.667 0.8607-5.1333 2.3551-13.833 3.3208-19.333s2.4343-15.1 3.2636-21.333c0.8292-6.2333 2.3255-17.033 3.3249-24 0.9995-6.9667 2.4694-19.267 3.2663-27.333 0.7971-8.0667 2.3452-22.888 3.4403-32.936 1.095-10.048 1.991-21.598 1.991-25.667v-7.3971h286.67v432h-190c-104.5 0-190-0.22787-190-0.50636z" fill="#362d93"/><path d="m1450.7 431.49c0-0.27919 2.0527-6.178 4.5613-13.109 9.4303-26.051 18.562-54.271 26.659-82.384 2.64-9.1667 5.6469-19.367 6.6819-22.667 1.0349-3.3 3.15-11.4 4.7001-18s3.3647-13.8 4.0321-16c1.4708-4.8479 7.7439-31.008 9.4318-39.333 0.669-3.3 2.1444-10.2 3.2784-15.333 1.134-5.1333 2.9821-14.133 4.1068-20 1.1246-5.8667 2.8733-14.567 3.886-19.333 1.0126-4.7667 2.5016-12.867 3.3088-18 0.8072-5.1333 2.3092-14.433 3.3377-20.667 1.0285-6.2333 2.4931-15.833 3.2545-21.333 0.7615-5.5 2.2599-16 3.3298-23.333 1.0698-7.3333 2.6173-20.233 3.4388-28.667 0.8214-8.4333 2.3578-22.833 3.4141-32 1.0564-9.1667 1.9271-20.867 1.9348-26 0.0133-5.1333 0.3759-10.683 0.8181-12.333l0.804-3h229.02v432h-160c-88 0-160-0.22843-160-0.50761z" fill="#362688"/><path d="m1610.7 430.69c0-0.72242 1.7396-6.5724 3.8659-13 8.2729-25.009 22.288-74.337 28.134-99.02 2.1844-9.223 6.4032-26.063 9.3529-37.333 0.6718-2.5667 2.4631-10.967 3.9808-18.667 1.5178-7.7 3.305-16.1 3.9718-18.667 0.6666-2.5667 1.8893-8.5667 2.7168-13.333 0.8276-4.7667 2.3044-12.567 3.2817-17.333 0.9775-4.7667 2.4591-12.867 3.2925-18 0.8336-5.1333 2.3595-14.133 3.3912-20 2.172-12.352 3.9406-24.435 6.0499-41.333 0.8239-6.6 2.3089-17.7 3.3001-24.667 0.9914-6.9667 2.4688-19.867 3.2835-28.667 0.8145-8.8 2.3671-24.4 3.4501-34.667s1.9667-22.567 1.9638-27.333c0-4.7667 0.3665-10.917 0.821-13.667l0.8266-5h78.318v432h-80c-51.639 0-80-0.46565-80-1.3135z" fill="#37217e"/></g></svg>
