<?xml version="1.0" encoding="UTF-8"?>
<svg width="512" height="512" version="1.1" viewBox="0 0 512 512" xmlns="http://www.w3.org/2000/svg"><path d="m243.72 0.179c-149.71 7.679-260.42 139.68-241.77 288.24 2.681 21.346 10.155 49.908 16.58 63.362 8.748 18.315 35.002 18.75 44.25 0.733 3.683-7.175 3.792-13.534 0.387-22.464-31.566-82.773-7.36-175.94 60.41-232.51 82.676-69.011 204.14-63.089 279.55 13.631 79.572 80.961 79.045 210.55-1.181 290.77-61.52 61.519-153.78 77.802-233.32 41.178-5.339-2.458-7.904-3.11-12.253-3.112-22.102-9e-3 -33.167 26.588-17.557 42.199 3.539 3.538 8.272 6.03 21.687 11.418 89.811 36.069 192.73 18.292 265.06-45.784 110.18-97.606 115.86-267.38 12.452-371.89-44.579-45.055-101.54-71.017-165.76-75.559-4.437-0.314-23.816-0.467-28.529-0.225m58.243 77.772c-19.599 3.256-27.828 26.312-14.696 41.177 2.998 3.393 6.288 5.392 12.241 7.435 23.688 8.13 43.92 21.705 59.696 40.055 42.489 49.422 44.602 120.28 5.143 172.45-4.258 5.63-5.782 9.205-6.253 14.666-1.528 17.751 15.69 31.228 32.64 25.55 7.021-2.353 11.009-6.325 20.167-20.084 34.297-51.534 40.757-116.91 17.196-174.05-20.595-49.948-61.318-88.165-112.34-105.42-5.529-1.871-9.864-2.428-13.799-1.774m-138.49 18.645c-5.385 0.876-9.028 2.84-18.8 10.137-28.445 21.241-52.338 53.11-63.131 84.206-6.599 19.014 11.042 37.589 30.371 31.979 8.124-2.358 13.263-7.488 16.978-16.95 10.062-25.622 27.96-47.873 50.999-63.401 8.262-5.568 12.175-12.482 12.175-21.509 0-15.233-13.63-26.895-28.592-24.462m-67.9 165.95c-10.57 0.883-19.511 8.558-22.015 18.9-1.228 5.072-0.901 8.747 1.72 19.326 17.532 70.75 75.091 125.04 146.48 138.16 11.869 2.181 18.983 2.788 23.104 1.97 19.414-3.853 26.845-27.406 13.122-41.591-4.535-4.688-9.013-6.689-17.021-7.607-58.921-6.753-106.17-49.567-118.64-107.51-0.886-4.116-1.439-5.867-2.56-8.108-4.482-8.953-14.171-14.376-24.193-13.539" fill="#6c246c" fill-rule="evenodd"/></svg>
