<?xml version="1.0" encoding="UTF-8"?>
<svg width="358.14pt" height="72pt" version="1.0" viewBox="0 0 358.14 72" xmlns="http://www.w3.org/2000/svg"><g transform="translate(0 72) scale(.002381 -.002381)" fill="#6c256b"><path d="m14584 30229c-4432-156-8555-2240-11315-5719-1436-1810-2446-3945-2928-6191-254-1183-369-2423-333-3601 16-526 37-830 88-1288 119-1073 349-2112 697-3145 210-622 329-902 449-1058 226-294 521-481 881-559 137-29 426-32 560-5 298 60 543 192 758 406 283 284 422 619 423 1021 1 254-17 336-164 720-393 1033-646 2152-739 3270-55 657-57 1371-6 2025 196 2495 1166 4876 2776 6811 248 299 431 498 763 830s531 515 830 763c1935 1610 4316 2580 6811 2776 466 36 1156 47 1585 25 2467-129 4755-955 6715-2424 712-533 1418-1198 1989-1871 1519-1793 2486-3968 2790-6275 77-584 100-948 100-1610 1-543-5-687-45-1125-165-1832-733-3572-1682-5155-1028-1713-2484-3169-4197-4197-1583-949-3330-1519-5160-1683-376-33-518-40-940-47-1888-28-3668 358-5405 1171-242 113-407 151-660 150-248-1-420-41-640-148-650-317-964-1076-733-1771 41-122 135-303 213-406 82-110 240-261 346-331 122-81 386-209 759-368 1563-667 3198-1060 4900-1179 476-34 1279-43 1735-21 2162 104 4169 627 6077 1581 1249 625 2372 1396 3430 2356 223 202 769 748 971 971 1435 1582 2492 3374 3163 5366 452 1341 704 2688 774 4141 14 291 15 1081 0 1370-54 1114-214 2165-486 3190-640 2408-1849 4598-3549 6425-205 220-679 690-890 881-1566 1424-3387 2492-5385 3160-1721 574-3509 832-5326 768z"/><path d="m17915 25640c-514-55-953-361-1175-820-50-105-105-276-125-394-19-113-19-353 0-471 50-308 192-584 416-805 175-174 345-271 663-380 627-215 1174-473 1708-807 1635-1022 2857-2613 3429-4463 394-1275 466-2625 208-3926-242-1229-737-2330-1503-3349-225-299-302-452-358-708-32-147-32-437 0-584 126-579 561-1013 1142-1139 121-26 449-27 569-1 296 64 538 193 742 397 151 151 481 596 732 988 1387 2166 1978 4762 1661 7292-37 297-70 498-130 798-529 2653-2022 5025-4179 6643-945 709-2021 1272-3120 1632-274 90-477 119-680 97z"/><path d="m9730 24539c-213-23-450-106-638-226-109-70-348-237-517-363-852-632-1616-1394-2262-2255-576-769-1064-1642-1416-2535-119-303-145-409-154-625-16-419 129-789 426-1086 216-215 457-343 766-406 133-27 415-24 547 5 426 94 772 343 981 707 25 44 88 186 140 315 241 601 489 1071 833 1577 581 856 1317 1590 2179 2173 193 131 354 277 449 409 116 161 209 375 253 581 26 121 26 440 0 559-98 455-382 826-780 1021-269 131-524 178-807 149z"/><path d="m136850 24149c-304-26-519-78-695-167-70-36-108-64-172-127-72-73-88-95-141-206-108-221-143-348-161-578-15-184-15-9341-1-9636 39-788 139-1347 327-1820 207-522 462-790 936-979 596-239 1180-320 2322-321 515 0 532 1 606 22 130 37 301 136 380 219 177 187 261 542 275 1169 10 386-16 714-72 943-75 304-182 437-454 566-114 54-184 65-475 76-341 12-467 37-568 114-78 59-123 200-146 456-8 78-11 1476-11 4385 0 2532-4 4388-10 4560-14 418-34 520-145 752-64 133-99 186-172 260-176 176-454 274-883 313-132 11-599 11-740-1z"/><path d="m113655 23400c-470-42-744-140-915-328-46-50-78-101-129-202-120-243-146-352-162-700-7-151-9-1953-7-5505 3-4930 5-5286 21-5371 26-141 83-328 127-418 100-205 258-327 555-429 244-84 411-108 798-114 557-9 878 37 1136 164 100 49 126 67 201 142 81 80 93 97 157 226 123 249 148 356 163 699 6 127 10 1022 10 2104v1882h4728l5-2072c4-2265 1-2131 61-2355 69-253 161-408 300-508 169-120 435-216 731-261 102-16 179-19 505-19 416 0 510 8 750 61 227 50 372 123 501 253 78 79 92 99 152 221 112 231 141 344 157 630 13 229 13 10585 0 10795-18 298-116 585-251 738-142 162-476 300-859 354-178 25-775 25-965 0-347-47-544-114-700-238-38-30-89-80-112-110-84-110-185-331-222-490-43-180-44-227-48-2346l-4-2033h-4729l-1 1928c0 1060-4 2017-9 2127-19 416-134 724-328 880-31 25-106 70-167 100-187 92-370 146-615 182-124 18-680 26-835 13z"/><path d="m38445 23384c-458-46-683-113-867-259-78-61-138-140-202-265-105-204-140-337-156-595-14-220-14-10568 0-10795 12-196 30-300 71-418 43-120 129-285 186-357 150-185 376-285 774-342 181-26 866-26 1049 0 255 37 405 78 555 155 72 37 108 65 181 137 81 80 98 103 151 210 65 128 114 256 132 345 34 170 35 233 40 3480l6 3215 115-155c125-167 564-769 1075-1475 578-798 1009-1381 1265-1710 64-82 145-190 181-240 114-159 247-274 472-407 148-88 299-150 449-186 105-25 129-26 333-26 203 0 229 2 331 26 207 49 407 143 634 299 147 100 211 159 280 259 36 51 103 143 149 204 506 672 645 862 1216 1661 578 808 895 1240 1184 1608l116 147 5-3277 6-3278 21-92c40-174 74-278 125-383 44-92 61-116 137-191 77-76 100-92 211-146 190-93 396-153 635-185 161-21 794-18 965 5 533 72 760 210 910 552 89 205 121 328 140 545 14 165 14 10659-1 10841-18 226-49 346-144 544-88 184-175 281-329 369-131 75-310 125-576 163-184 26-817 26-1010 0-445-60-747-192-901-392-24-31-134-172-245-313-642-822-1970-2560-3401-4451-247-327-453-596-459-597-5-2-920 1194-2034 2657-2270 2982-2124 2800-2330 2902-128 63-312 127-452 158-203 44-282 51-623 54-181 1-348 1-370-1z"/><path d="m82520 19934c-25-2-112-11-195-20-1121-116-2173-649-3050-1545-927-946-1364-2134-1314-3567 22-602 147-1153 385-1692 323-730 933-1485 1599-1980 670-499 1508-839 2330-944 384-49 840-49 1230 0 793 99 1653 434 2267 881 721 526 1354 1333 1677 2135 283 704 392 1518 315 2348-108 1168-562 2133-1380 2930-670 653-1418 1085-2254 1304-229 60-438 98-725 132-123 15-768 28-885 18zm615-3159c130-20 305-66 418-111 276-109 575-314 718-490 191-236 288-473 334-814 17-123 19-426 5-555-48-418-219-762-498-1002-112-95-356-254-496-322-512-250-1012-250-1521-1-133 65-319 184-437 278-354 286-538 727-538 1287 0 716 285 1202 902 1538 213 117 415 178 698 211 63 8 315-4 415-19z"/><path d="m129134 19925c-919-87-1736-409-2493-983-908-688-1496-1513-1775-2488-274-960-259-2048 40-2943 267-799 806-1580 1509-2186 718-618 1681-1035 2660-1150 190-23 680-31 884-16 520 40 1017 156 1503 351 204 82 541 247 708 347 442 264 866 634 1213 1058 646 787 975 1555 1093 2545 22 183 30 744 15 966-96 1378-663 2475-1740 3369-642 532-1381 891-2162 1049-133 26-337 58-504 77-155 17-783 20-951 4zm743-3155c286-47 523-142 786-316 442-294 651-698 674-1304 23-626-179-1102-602-1420-496-373-999-507-1503-400-396 84-866 371-1086 665-210 279-306 608-306 1050 0 497 117 841 391 1155 215 246 655 495 997 565 192 39 431 41 649 5z"/><path d="m57300 19920c-1290-58-2373-479-3265-1270-594-527-1009-1149-1264-1893-122-356-199-722-248-1172-22-206-25-924-5-1110 112-1012 449-1872 1047-2670 316-422 695-754 1174-1029 765-440 1592-662 2593-695 262-9 848 1 1138 19 1740 109 2677 525 2877 1275 23 89 26 119 27 275 1 200-15 292-85 498-144 419-381 786-627 972-284 213-603 225-1062 38-365-148-537-199-865-258-363-64-585-84-955-84-320-1-426 9-645 61-359 85-767 286-979 484-178 166-278 354-293 552l-6 77h2169c2350 0 2273-1 2478 54 244 67 462 185 688 375 413 347 606 820 649 1591 39 726-144 1417-551 2070-257 413-623 805-1005 1077-488 347-1187 612-1880 712-318 46-757 66-1105 51zm471-2831c311-31 546-124 717-284 180-168 262-359 262-613 0-296-125-468-397-545l-78-22-2457-6 7 78c24 265 150 514 380 752 281 290 634 512 957 601 172 47 394 61 609 39z"/><path d="m98554 19919c-306-34-698-201-1109-474-190-126-319-231-450-366-279-288-370-551-292-839 31-115 98-276 180-430 33-63 881-1496 1883-3183l1823-3069-46-96c-506-1085-1321-2899-1485-3307-131-325-194-580-183-737 14-206 97-377 270-556 231-240 589-446 1085-625 292-105 465-141 675-142 137 0 171 3 238 23 187 54 376 189 511 365 56 73 187 330 284 557 27 63 1102 2471 2389 5350s2370 5307 2408 5395c78 185 156 414 181 530 23 111 21 278-4 375-106 401-514 737-1234 1014-180 69-362 120-528 147-241 40-501 14-658-65-122-62-242-181-366-364-67-100-117-196-235-460-49-109-218-480-376-827-708-1552-1196-2644-1336-2990-27-66-51-120-55-120-23 0-1197 1969-2209 3705-98 168-248 418-333 555-135 217-167 261-242 335-235 233-494 332-786 299z"/><path d="m145870 19920c-1416-63-2593-569-3516-1511-772-789-1192-1784-1275-3024-15-222-6-785 15-960 88-736 288-1371 621-1971 238-429 477-756 765-1045 256-256 506-448 828-633 766-440 1593-662 2594-695 262-9 871 1 1147 19 1743 114 2668 526 2868 1275 23 89 26 119 27 275 1 199-9 263-76 470-135 418-384 810-636 1e3 -284 213-603 225-1062 38-365-148-537-199-865-258-363-64-585-84-955-84-320-1-426 9-645 61-359 85-767 286-979 484-178 166-278 354-293 552l-6 77h2169c2350 0 2273-1 2478 54 244 67 462 185 688 375 412 346 604 816 649 1586 41 728-144 1424-555 2080-302 484-729 914-1181 1191-469 287-1094 505-1700 593-318 46-757 66-1105 51zm471-2831c315-31 547-125 722-289 176-165 257-356 257-608 0-296-125-468-397-545l-78-22-2457-6 7 78c24 265 150 514 380 752 281 290 634 512 957 601 172 47 394 61 609 39z"/><path d="m93965 19810c-209-22-441-81-647-165-136-56-217-97-403-203-418-239-557-349-769-606l-81-99-7 84c-15 172-48 268-149 437-95 157-205 245-412 328-292 117-774 167-1282 134-541-36-851-149-1017-370-83-111-186-360-213-518-34-196-36-425-33-3982l4-3515 22-99c67-306 166-513 297-620 152-125 432-229 747-277 171-27 616-37 834-20 622 50 903 186 1073 519 63 125 112 253 130 342 33 164 34 265 40 2440l6 2175 23 80c123 424 531 761 1047 864 147 29 334 44 470 38 193-9 346-48 546-138 264-119 506-165 736-139 386 42 664 260 875 685 217 434 329 904 331 1385 1 216-10 292-64 429-86 218-284 423-524 543-198 100-633 213-975 253-167 19-485 27-605 15z"/><path d="m67925 19739c-384-37-828-218-1125-457-198-161-508-496-651-704l-64-93-7 126c-27 487-231 836-571 977-249 104-597 150-1037 139-616-17-952-114-1161-335-67-71-87-101-143-215-102-208-128-309-146-557-14-201-14-7002 1-7199 16-232 43-338 138-551 60-135 124-225 208-295 122-100 272-163 503-209 194-39 293-47 607-53 800-15 1241 110 1443 407 79 117 166 317 194 450 37 173 39 282 46 2275 7 1913 8 1963 28 2085 96 586 338 914 752 1020 122 31 361 39 499 16 461-77 739-389 846-948 49-261 48-222 55-2293 8-2188 2-2036 80-2266 132-397 313-571 695-669 223-57 442-80 781-80 708 0 1091 106 1313 365 51 59 165 286 204 403 63 189 59 78 67 2252 7 2020 7 2028 46 2270 29 183 93 399 156 525 133 263 343 402 676 446 140 19 385 6 507-25 389-101 637-398 740-886 51-239 48-138 55-2220 7-1977 9-2071 46-2240 38-174 149-425 231-522 158-187 388-286 803-345 161-23 782-26 955-5 431 53 673 151 826 334 91 109 210 390 238 563 6 39 16 124 21 190 13 164 13 3910 0 4165-64 1235-301 2129-735 2780-123 185-200 276-394 470-274 273-509 444-826 600-395 195-735 282-1206 311-422 26-799-41-1179-211-269-120-654-359-920-570-166-132-404-387-603-642-50-65-93-118-96-118s-32 44-64 98c-132 222-272 398-482 607-340 340-663 539-1111 685-374 122-882 183-1239 149z"/><path d="m5595 14724c-182-27-350-80-506-161-139-72-252-158-374-285-155-160-266-346-334-555-54-165-66-249-65-453 0-175 2-195 38-365 523-2498 1869-4713 3841-6318 1623-1322 3618-2154 5725-2388 300-33 487-20 705 48 710 222 1135 936 994 1671-56 289-186 531-403 747-134 133-225 200-373 275-186 92-315 126-613 160-2714 306-5061 1928-6301 4355-338 661-570 1320-720 2045-51 247-112 405-224 575-209 320-539 544-920 627-87 19-393 33-470 22z"/></g></svg>
